<?xml version="1.0" encoding="UTF-8"?>
<svg width="195px" height="195px" viewBox="0 0 195 195" version="1.1" xmlns="http://www.w3.org/2000/svg" xmlns:xlink="http://www.w3.org/1999/xlink">
    <title>Combined Shape Copy</title>
    <g id="Page-1" stroke="none" stroke-width="1" fill="none" fill-rule="evenodd">
        <g id="autowind-og" transform="translate(-180.000000, -285.000000)" fill="#5046E5" fill-rule="nonzero">
            <g id="Group" transform="translate(180.000000, 285.000000)">
                <path d="M118.749727,0.878685282 C119.312337,1.44129793 119.628405,2.20436387 119.628401,3.0000162 L119.628199,40.4991362 L120.432788,41.303725 L177.604651,41.3045954 C179.261506,41.3046206 180.604631,42.6477868 180.604606,44.304641 C180.604594,45.1003075 180.288498,45.8633794 179.725859,46.4259828 L153.209476,72.9406901 L153.209476,74.0804134 L193.636066,114.507003 C194.807638,115.678576 194.807638,117.578071 193.636066,118.749644 C193.073452,119.312257 192.310384,119.628328 191.514729,119.628323 L154.015395,119.628121 L153.209476,120.43404 L153.21,177.604578 C153.210016,179.261433 151.866882,180.604591 150.210028,180.604606 C149.414362,180.604613 148.651283,180.288536 148.088666,179.725912 L121.572511,153.209398 L120.434117,153.209398 L80.0077358,193.635994 C78.836166,194.80757 76.9366711,194.807575 75.7650951,193.636005 C75.2024826,193.073396 74.8864098,192.310332 74.8864098,191.51468 L74.8864098,154.013987 L74.081821,153.209398 L16.9099398,153.209923 C15.2530855,153.209938 13.9099274,151.866804 13.9099122,150.20995 C13.9099049,149.41431 14.2259611,148.651253 14.7885536,148.088641 L41.3038027,121.572433 L41.3038027,120.43138 L0.878710627,80.0074682 C-0.292879353,78.8359124 -0.292907084,76.9364175 0.878648686,75.7648275 C1.44123849,75.2022213 2.20427708,74.8861406 2.99991083,74.8861169 L40.5005438,74.8850023 L41.3038027,74.0817433 L41.3046731,16.9098666 C41.3046983,15.2530123 42.6478645,13.909887 44.3047187,13.9099123 C45.1003594,13.9099244 45.8634086,14.2259995 46.4260077,14.7886063 L72.9407677,41.303725 L74.081821,41.303725 L114.507086,0.878674031 C115.678662,-0.292895737 117.578157,-0.2928907 118.749727,0.878685282 Z M101.624027,153.209398 L88.8503483,153.209398 L88.8503483,165.983077 L101.624027,153.209398 Z M139.909157,133.734359 L130.877814,142.767032 L139.909157,151.798375 L139.909157,133.734359 Z M51.7488287,130.876406 L42.7134956,139.910409 L60.782832,139.910409 L51.7488287,130.876406 Z M88.8490184,120.487236 L88.8503483,139.910409 L108.273522,139.910409 L88.8490184,120.487236 Z M74.8864098,107.737495 L61.1525439,121.472691 L74.8864098,135.206557 L74.8864098,107.737495 Z M135.205305,119.628121 L107.738902,119.628121 L121.472768,133.361987 L135.205305,119.628121 Z M74.0259653,88.8489408 L54.6041217,88.8502707 L54.6041217,108.270784 L74.0259653,88.8489408 Z M99.757425,87.7573474 L94.757425,87.7573474 C90.8914318,87.7573474 87.757425,90.8913541 87.757425,94.7573474 L87.757425,94.7573474 L87.757425,99.7573474 C87.757425,103.623341 90.8914318,106.757347 94.757425,106.757347 L94.757425,106.757347 L99.757425,106.757347 C103.623418,106.757347 106.757425,103.623341 106.757425,99.7573474 L106.757425,99.7573474 L106.757425,94.7573474 C106.757425,90.8913541 103.623418,87.7573474 99.757425,87.7573474 L99.757425,87.7573474 Z M153.209476,92.8891736 L153.209476,105.664183 L165.984485,105.664183 L153.209476,92.8891736 Z M139.909157,86.2423389 L120.487313,105.664183 L139.909157,105.664183 L139.909157,86.2423389 Z M41.3038027,88.8502707 L28.5301237,88.8502707 L41.3038027,101.62395 L41.3038027,88.8502707 Z M119.628199,59.3078964 L119.628199,86.7742985 L133.362065,73.0417624 L119.628199,59.3078964 Z M73.0418401,61.1524662 L59.3079741,74.8850023 L86.7743762,74.8850023 L73.0418401,61.1524662 Z M105.66426,54.604044 L86.2410867,54.604044 L105.66426,74.0258876 L105.66426,54.604044 Z M151.798453,54.604044 L133.733106,54.604044 L142.76578,63.6367173 L151.798453,54.604044 Z M54.6041217,42.7147478 L54.6041217,60.7814244 L63.6381249,51.748751 L54.6041217,42.7147478 Z M105.66426,28.5287162 L92.8892513,41.303725 L105.66426,41.303725 L105.66426,28.5287162 Z" id="Combined-Shape-Copy"></path>
            </g>
        </g>
    </g>
</svg>