<?xml version="1.0" encoding="UTF-8"?>
<svg width="193px" height="193px" viewBox="0 0 193 193" version="1.1" xmlns="http://www.w3.org/2000/svg" xmlns:xlink="http://www.w3.org/1999/xlink">
    <title>autowindcss-logo</title>
    <defs>
        <radialGradient cx="39.4653953%" cy="100%" fx="39.4653953%" fy="100%" r="68.6455129%" id="radialGradient-1">
            <stop stop-color="#5046E5" stop-opacity="0.443441324" offset="0%"></stop>
            <stop stop-color="#665CFC" offset="100%"></stop>
        </radialGradient>
    </defs>
    <g id="Page-1" stroke="none" stroke-width="1" fill="none" fill-rule="evenodd">
        <g id="autowind-og-copy-2" transform="translate(-180.000000, -287.000000)" fill="url(#radialGradient-1)" fill-rule="nonzero">
            <path d="M299.494,373.894 L314.207,359.18 L314.179,359.152 L314.373295,359.152882 L314.373,340.216 L323.772,349.615 L333.749543,339.638667 L314.373,339.638 L314.373,326.113 L353.343811,326.113292 C356.331931,326.113292 358.754281,328.535642 358.754281,331.523763 C358.754281,332.958709 358.184251,334.334883 357.169591,335.349543 L299.55,392.968 L320.359,392.968 L320.359,392.927 L320.496476,393.064451 L333.886,379.674 L333.886,392.968 L347.996665,392.968324 L334.294,379.266 L343.859,369.702 L371.41531,397.258249 C373.52823,399.37117 373.52823,402.79689 371.41531,404.90981 C370.40065,405.92447 369.024475,406.4945 367.589529,406.4945 L286.104,406.494 L300.818,421.208 L300.847,421.179 L300.847118,421.373295 L319.783,421.373 L310.383,430.773 L320.359981,440.749543 L320.359,421.373 L333.886,421.373 L333.886708,460.343811 C333.886708,463.331931 331.464358,465.754281 328.476237,465.754281 C327.041291,465.754281 325.665117,465.184251 324.650457,464.169591 L277.456445,416.97558 L267.031,406.551 L267.031,427.359 L267.072,427.359 L266.935549,427.496476 L280.325,440.886 L267.031,440.886 L267.031676,454.995312 L280.732,441.293 L290.298,450.859 L262.741751,478.41531 C260.62883,480.52823 257.20311,480.52823 255.09019,478.41531 C254.07553,477.40065 253.5055,476.024475 253.5055,474.589529 L253.505,393.104 L238.791,407.818 L238.82,407.847 L238.626705,407.847118 L238.626,426.783 L229.226,417.383 L219.25,427.359 L238.626,427.359 L238.626,440.886 L199.656189,440.886708 C196.668069,440.886708 194.245719,438.464358 194.245719,435.476237 C194.245719,434.041291 194.815749,432.665117 195.830409,431.650457 L243.02442,384.456445 L243.023,384.455 L253.448,374.031 L232.638,374.031 L232.638,374.07 L232.503524,373.935549 L219.113,387.325 L219.113,374.031 L205.003335,374.031676 L218.705,387.733 L209.141,397.298 L181.58469,369.741751 C179.47177,367.62883 179.47177,364.20311 181.58469,362.09019 C182.59935,361.07553 183.975525,360.5055 185.410471,360.5055 L266.895,360.505 L252.18,345.79 L252.152,345.818 L252.152882,345.626705 L233.216,345.626 L242.616,336.226 L232.638667,326.249104 L232.638,345.626 L219.113,345.626 L219.113292,306.656189 C219.113292,303.668069 221.535642,301.245719 224.523763,301.245719 C225.958709,301.245719 227.334883,301.815749 228.349543,302.830409 L285.968,360.449 L285.968,339.638 L285.929,339.638 L286.064451,339.503524 L272.674,326.113 L285.968,326.113 L285.968324,312.001982 L272.265,325.704 L262.702,316.141 L290.258249,288.58469 C292.37117,286.47177 295.79689,286.47177 297.90981,288.58469 C298.92447,289.59935 299.4945,290.975525 299.4945,292.410471 L299.494,373.894 Z M276.5,372.679059 C270.523759,372.679059 265.679059,377.523759 265.679059,383.5 C265.679059,389.476241 270.523759,394.320941 276.5,394.320941 C282.476241,394.320941 287.320941,389.476241 287.320941,383.5 C287.320941,377.523759 282.476241,372.679059 276.5,372.679059 Z" id="autowindcss-logo"></path>
        </g>
    </g>
</svg>